<svg width="512" height="512" viewBox="0 0 512 512" xmlns="http://www.w3.org/2000/svg">
  <defs>
    <linearGradient id="grad1" x1="0%" y1="0%" x2="100%" y2="100%">
      <stop offset="0%" style="stop-color:#667eea;stop-opacity:1" />
      <stop offset="100%" style="stop-color:#764ba2;stop-opacity:1" />
    </linearGradient>
  </defs>
  
  <!-- Background circle -->
  <circle cx="256" cy="256" r="240" fill="url(#grad1)" stroke="#ffffff" stroke-width="8"/>
  
  <!-- Note paper -->
  <rect x="120" y="100" width="272" height="312" rx="20" fill="#ffffff" opacity="0.95"/>
  
  <!-- Note lines -->
  <line x1="140" y1="140" x2="372" y2="140" stroke="#667eea" stroke-width="3" opacity="0.3"/>
  <line x1="140" y1="160" x2="372" y2="160" stroke="#667eea" stroke-width="2" opacity="0.2"/>
  <line x1="140" y1="180" x2="372" y2="180" stroke="#667eea" stroke-width="2" opacity="0.2"/>
  <line x1="140" y1="200" x2="372" y2="200" stroke="#667eea" stroke-width="2" opacity="0.2"/>
  <line x1="140" y1="220" x2="320" y2="220" stroke="#667eea" stroke-width="2" opacity="0.2"/>
  
  <!-- Pin -->
  <circle cx="256" cy="120" r="12" fill="#dc3545"/>
  <rect x="252" y="120" width="8" height="20" fill="#dc3545"/>
  
  <!-- Pencil -->
  <rect x="340" y="320" width="40" height="6" rx="3" fill="#ffc107" transform="rotate(-45 360 323)"/>
  <rect x="375" y="285" width="6" height="40" rx="3" fill="#ffc107" transform="rotate(-45 378 305)"/>
  <polygon points="380,280 385,285 380,290" fill="#ffc107"/>
</svg>